<svg width="22" height="23" viewBox="0 0 22 23" fill="none" xmlns="http://www.w3.org/2000/svg">
<path fill-rule="evenodd" clip-rule="evenodd" d="M15.7929 16.2929C16.1834 15.9024 16.8166 15.9024 17.2071 16.2929L21.7071 20.7929C22.0976 21.1834 22.0976 21.8166 21.7071 22.2071C21.3166 22.5976 20.6834 22.5976 20.2929 22.2071L15.7929 17.7071C15.4024 17.3166 15.4024 16.6834 15.7929 16.2929Z" fill="#2B4C4D"/>
<path fill-rule="evenodd" clip-rule="evenodd" d="M0 10.5C0 4.97715 4.47715 0.5 10 0.5C15.5228 0.5 20 4.97715 20 10.5C20 16.0228 15.5228 20.5 10 20.5C4.47715 20.5 0 16.0228 0 10.5ZM10 2.5C5.58172 2.5 2 6.08172 2 10.5C2 14.9183 5.58172 18.5 10 18.5C14.4183 18.5 18 14.9183 18 10.5C18 6.08172 14.4183 2.5 10 2.5Z" fill="#345C54"/>
</svg>
