<svg width="618" height="762" viewBox="0 0 618 762" fill="none" xmlns="http://www.w3.org/2000/svg">
<path d="M597.981 563.487C598.022 563.8 598.147 564.09 598.354 564.354C598.558 564.618 598.809 564.833 599.106 565.003L600.922 566.072L600.708 567.445L587.264 565.34L587.478 563.966L591.504 563.604L588.642 543.866L588.391 542.073L580.295 558.549L577.082 563.746L574.177 563.291L571.039 541.201L570.746 539.101L561.014 558.505L564.527 560.37L564.313 561.744L554.539 560.212L554.754 558.839L556.958 558.169C557.232 558.089 557.525 557.941 557.835 557.729C558.146 557.514 558.378 557.269 558.528 556.984L569.277 536.1L572.469 530.9L575.915 531.441L578.696 551.099L579.105 554.231L586.731 538.837L589.946 533.64L593.775 534.24L597.981 563.487Z" fill="#F9FAFA"/>
<path d="M232.514 306.802L227.405 305.49C226.9 305.348 226.432 305.371 226 305.56C225.568 305.746 225.232 306.064 224.986 306.514L206.51 340.514L215.469 345.382C215.878 345.605 216.227 345.662 216.522 345.561C216.817 345.455 217.096 345.279 217.365 345.028L223.543 339.634L225.591 340.747L219.512 351.937L181.081 331.054L187.161 319.863L189.209 320.975L188.045 329.093C187.981 329.455 187.981 329.783 188.043 330.081C188.105 330.378 188.33 330.632 188.718 330.844L197.829 335.795L216.304 301.796C216.56 301.325 216.625 300.854 216.501 300.376C216.379 299.9 216.149 299.506 215.818 299.193L211.938 295.621L212.934 293.787L233.51 304.967L232.514 306.802Z" fill="#F9FAFA"/>
<path d="M142.299 547.366C144.4 549.977 145.833 552.644 146.593 555.368C147.356 558.092 147.522 560.769 147.09 563.4C146.655 566.031 145.654 568.569 144.081 571.008C142.509 573.45 140.442 575.701 137.881 577.762C135.449 579.718 132.875 581.182 130.159 582.152C127.443 583.125 124.729 583.544 122.02 583.415C119.312 583.285 116.689 582.571 114.151 581.275C111.613 579.979 109.314 578.052 107.252 575.491C105.009 572.705 103.532 569.914 102.818 567.122C102.104 564.331 102.008 561.628 102.518 559.013C103.03 556.397 104.08 553.911 105.666 551.552C107.255 549.193 109.239 547.056 111.621 545.139C113.031 544.003 114.552 543.007 116.184 542.149C117.817 541.29 119.509 540.62 121.263 540.144C123.016 539.668 124.807 539.414 126.638 539.381C128.47 539.35 130.286 539.608 132.091 540.159C133.897 540.708 135.664 541.569 137.394 542.741C139.125 543.913 140.76 545.455 142.299 547.366ZM139.384 549.071C138.235 547.646 136.867 546.691 135.276 546.207C133.685 545.726 131.97 545.644 130.13 545.962C128.291 546.28 126.369 546.96 124.362 548C122.354 549.04 120.355 550.365 118.36 551.968C116.06 553.821 114.099 555.699 112.48 557.603C110.861 559.507 109.668 561.392 108.905 563.263C108.139 565.133 107.839 566.957 108.002 568.737C108.165 570.514 108.892 572.206 110.183 573.81C111.409 575.333 112.842 576.316 114.48 576.761C116.12 577.206 117.866 577.242 119.718 576.872C121.57 576.502 123.469 575.791 125.409 574.736C127.352 573.68 129.238 572.415 131.069 570.943C133.323 569.13 135.265 567.272 136.9 565.371C138.535 563.47 139.751 561.581 140.556 559.706C141.357 557.833 141.686 555.991 141.539 554.185C141.394 552.38 140.677 550.675 139.384 549.071Z" fill="#F9FAFA"/>
<path d="M4.34267 462.029C4.83418 462.008 5.44468 462.024 6.1716 462.076C6.89851 462.125 7.65899 462.21 8.45833 462.327C9.25509 462.446 10.0338 462.596 10.7969 462.782C11.5549 462.968 12.2301 463.198 12.8147 463.475L11.2781 472.69L9.84493 472.752C9.08697 472.32 8.24882 471.87 7.32531 471.401C6.40179 470.936 5.46015 470.517 4.503 470.147C3.54327 469.779 2.59391 469.477 1.65228 469.244C0.71583 469.011 -0.153358 468.91 -0.944945 468.944C-1.57356 468.97 -2.08575 469.143 -2.48154 469.459C-2.87992 469.777 -3.14382 470.294 -3.27834 471.011C-3.41286 471.702 -3.50595 472.529 -3.56286 473.505C-3.61718 474.477 -3.65083 475.595 -3.66636 476.852C-3.68188 478.112 -3.66378 479.504 -3.61204 481.035C-3.5603 482.564 -3.49562 484.23 -3.4206 486.033L-1.60983 528.75C-1.58396 529.379 -1.37696 529.904 -0.988923 530.326C-0.603477 530.747 -0.132647 531.014 0.418359 531.13L6.17412 532.361L6.28022 534.86L-20.1371 535.98L-20.2431 533.482L-15.1056 531.787C-14.5649 531.598 -14.12 531.28 -13.7708 530.827C-13.4215 530.377 -13.2586 529.847 -13.2844 529.247L-15.1056 486.284C-15.2634 482.595 -14.8547 479.284 -13.8846 476.342C-12.9145 473.401 -11.5382 470.889 -9.75329 468.802C-7.96834 466.714 -5.86265 465.095 -3.43615 463.938C-1.00448 462.785 1.58505 462.146 4.34267 462.029Z" fill="#F9FAFA"/>
<path d="M488.279 345.598C488.426 345.114 488.592 344.71 488.77 344.387C488.949 344.064 489.164 343.795 489.407 343.575C489.65 343.355 489.935 343.171 490.255 343.021C490.576 342.871 490.961 342.724 491.406 342.576C491.841 342.426 492.345 342.255 492.922 342.067C493.499 341.875 494.05 341.691 494.575 341.51C495.191 341.309 495.812 341.104 496.441 340.895C497.023 339.33 497.806 338.026 498.795 336.986C499.783 335.946 500.913 335.16 502.189 334.629C503.464 334.099 504.856 333.827 506.364 333.817C507.875 333.807 509.442 334.047 511.069 334.544C512.686 335.035 514.124 335.742 515.387 336.663C516.649 337.584 517.663 338.667 518.432 339.92C519.197 341.172 519.679 342.561 519.873 344.092C520.067 345.624 519.904 347.238 519.386 348.94C518.822 350.792 518.023 352.306 516.991 353.472C515.959 354.641 514.779 355.508 513.452 356.077C512.125 356.644 510.694 356.933 509.155 356.941C507.616 356.949 506.056 356.714 504.47 356.23C503.34 355.886 502.253 355.407 501.216 354.797C500.179 354.186 499.252 353.452 498.443 352.593C497.633 351.734 496.976 350.751 496.469 349.644C495.965 348.536 495.685 347.315 495.633 345.981L490.755 347.797C490.398 347.923 490.046 348.102 489.699 348.332C489.352 348.562 489.094 348.803 488.923 349.056L487.728 350.953L486.742 350.652L488.279 345.598ZM497.77 342.607C497.48 343.554 497.473 344.457 497.739 345.318C498.008 346.177 498.495 346.969 499.198 347.696C499.902 348.423 500.792 349.074 501.868 349.657C502.944 350.239 504.147 350.73 505.471 351.134C507 351.599 508.438 351.905 509.784 352.049C511.129 352.194 512.337 352.153 513.405 351.925C514.476 351.698 515.384 351.276 516.129 350.663C516.874 350.047 517.41 349.206 517.736 348.141C518.044 347.127 518.049 346.188 517.746 345.318C517.446 344.449 516.931 343.658 516.199 342.941C515.47 342.224 514.572 341.593 513.509 341.045C512.446 340.496 511.305 340.039 510.086 339.669C508.589 339.213 507.166 338.908 505.815 338.758C504.465 338.605 503.249 338.636 502.168 338.849C501.087 339.061 500.16 339.475 499.397 340.09C498.639 340.698 498.096 341.539 497.77 342.607Z" fill="#F9FAFA"/>
<path d="M454.091 675.908C454.238 675.424 454.401 675.02 454.582 674.697C454.761 674.376 454.973 674.105 455.219 673.885C455.462 673.665 455.746 673.481 456.067 673.331C456.388 673.181 456.773 673.034 457.218 672.886C457.653 672.736 458.157 672.565 458.734 672.377C459.311 672.188 459.862 672.001 460.387 671.82C461.003 671.619 461.624 671.414 462.252 671.205C462.834 669.64 463.618 668.336 464.606 667.296C465.595 666.253 466.725 665.47 468 664.939C469.276 664.409 470.667 664.137 472.176 664.127C473.686 664.117 475.254 664.357 476.881 664.854C478.498 665.345 479.936 666.052 481.199 666.973C482.461 667.893 483.475 668.977 484.243 670.229C485.009 671.481 485.49 672.871 485.684 674.402C485.878 675.933 485.715 677.548 485.198 679.252C484.634 681.105 483.835 682.615 482.803 683.785C481.77 684.954 480.591 685.821 479.264 686.39C477.937 686.956 476.503 687.246 474.964 687.254C473.425 687.261 471.865 687.026 470.279 686.542C469.149 686.198 468.062 685.72 467.025 685.109C465.988 684.499 465.062 683.764 464.252 682.905C463.442 682.046 462.785 681.063 462.278 679.956C461.774 678.849 461.494 677.628 461.443 676.293L456.564 678.109C456.207 678.236 455.855 678.414 455.508 678.645C455.162 678.875 454.903 679.115 454.732 679.371L453.537 681.268L452.551 680.968L454.091 675.908ZM463.582 672.917C463.292 673.864 463.284 674.769 463.551 675.628C463.82 676.487 464.304 677.279 465.01 678.006C465.714 678.733 466.603 679.384 467.68 679.966C468.756 680.549 469.959 681.04 471.283 681.444C472.812 681.909 474.25 682.214 475.595 682.359C476.941 682.504 478.149 682.463 479.217 682.235C480.288 682.008 481.196 681.586 481.941 680.973C482.686 680.357 483.222 679.516 483.548 678.451C483.855 677.436 483.861 676.497 483.558 675.628C483.258 674.759 482.743 673.967 482.011 673.251C481.281 672.534 480.384 671.903 479.321 671.355C478.257 670.806 477.117 670.348 475.898 669.978C474.4 669.523 472.978 669.218 471.627 669.068C470.277 668.915 469.061 668.946 467.98 669.158C466.898 669.371 465.972 669.784 465.209 670.4C464.451 671.008 463.908 671.849 463.582 672.917Z" fill="#F9FAFA"/>
<path d="M414.928 551.189C415.005 550.881 415 550.568 414.907 550.247C414.816 549.926 414.664 549.632 414.454 549.365L413.171 547.691L413.885 546.499L425.56 553.494L424.846 554.686L420.978 553.512L416.229 572.882L415.789 574.639L429.471 562.4L434.399 558.789L436.921 560.3L431.548 581.955L431.034 584.011L447.331 569.672L444.773 566.625L445.487 565.432L453.974 570.516L453.26 571.708L450.966 571.501C450.681 571.473 450.355 571.499 449.988 571.581C449.62 571.662 449.313 571.806 449.064 572.011L431.269 587.341L426.362 590.965L423.369 589.172L428.16 569.908L428.956 566.85L416.112 578.263L411.184 581.875L407.86 579.883L414.928 551.189Z" fill="#F9FAFA"/>
<path d="M244.036 198.547L246.522 197.466C246.783 197.35 246.99 197.176 247.148 196.941C247.303 196.708 247.363 196.442 247.324 196.144L244.566 174.51C244.527 174.197 244.403 173.949 244.194 173.762C243.984 173.576 243.738 173.46 243.456 173.411L240.782 173.007L240.624 171.768L263.112 168.902L264.038 176.181L262.615 176.362L260.416 172.241C260.31 172.047 260.188 171.892 260.056 171.771C259.925 171.652 259.736 171.605 259.492 171.636L250.221 172.818L251.504 182.884L257.4 182.134C257.671 182.1 257.86 182.012 257.966 181.875C258.072 181.738 258.147 181.57 258.191 181.37L259.128 177.863L260.408 177.7L261.712 187.926L260.432 188.089L258.649 184.969C258.541 184.775 258.422 184.62 258.29 184.498C258.158 184.376 257.956 184.335 257.684 184.369L251.789 185.119L253.219 196.343L264.239 194.939C264.485 194.908 264.658 194.82 264.765 194.675C264.871 194.53 264.943 194.346 264.982 194.121L265.923 189.022L267.346 188.841L268.347 196.711L244.191 199.789L244.036 198.547Z" fill="#F9FAFA"/>
<path d="M496.689 400.434L495.564 402.791C495.447 403.039 495.406 403.298 495.44 403.567C495.473 403.836 495.597 404.066 495.815 404.258L511.478 418.245C511.703 418.447 511.957 418.55 512.236 418.553C512.516 418.555 512.764 418.486 512.979 418.343L515.178 416.946L516.075 417.748L508.162 426.611C507.215 427.672 506.312 428.541 505.459 429.224C504.602 429.904 503.793 430.432 503.032 430.799C502.272 431.169 501.56 431.402 500.898 431.5C500.236 431.599 499.62 431.593 499.046 431.485C498.471 431.379 497.939 431.187 497.45 430.918C496.961 430.647 496.513 430.334 496.11 429.974C495.274 429.229 494.684 428.437 494.34 427.599C493.994 426.761 493.802 425.933 493.766 425.116C493.73 424.298 493.807 423.515 493.996 422.77C494.188 422.022 494.402 421.375 494.64 420.832L482.979 419.254C482.79 419.228 482.578 419.218 482.34 419.228C482.104 419.236 481.864 419.262 481.626 419.303C481.385 419.344 481.155 419.399 480.935 419.469C480.715 419.536 480.534 419.621 480.389 419.722L478.177 421.16L477.28 420.359L481.486 415.648C481.879 415.205 482.241 414.867 482.567 414.629C482.893 414.391 483.227 414.225 483.566 414.132C483.905 414.039 484.272 414.005 484.67 414.034C485.069 414.062 485.534 414.122 486.072 414.215L496.57 415.943L498.836 414.473L492.079 408.438C491.854 408.236 491.614 408.125 491.363 408.102C491.109 408.079 490.871 408.143 490.646 408.296L488.158 409.988L487.26 409.186L495.791 399.632L496.689 400.434ZM498.371 417.572C497.838 418.17 497.491 418.799 497.338 419.453C497.186 420.11 497.175 420.762 497.31 421.411C497.444 422.061 497.703 422.684 498.086 423.282C498.469 423.879 498.927 424.415 499.454 424.888C500.888 426.169 502.225 426.769 503.464 426.696C504.703 426.621 505.86 425.985 506.928 424.787L508.467 423.064L500.269 415.744C500.171 415.816 500.037 415.93 499.868 416.088C499.7 416.245 499.522 416.416 499.33 416.6C499.141 416.783 498.958 416.962 498.782 417.14C498.603 417.322 498.466 417.466 498.371 417.572Z" fill="#F9FAFA"/>
<path d="M337.989 536.854L342.234 539.984C342.648 540.304 343.091 540.457 343.561 540.444C344.032 540.434 344.464 540.266 344.857 539.94L374.731 515.349L368.251 507.477C367.956 507.117 367.653 506.934 367.34 506.918C367.027 506.905 366.701 506.965 366.36 507.097L358.609 509.782L357.127 507.981L366.96 499.887L394.759 533.656L384.926 541.751L383.444 539.95L387.567 532.859C387.761 532.549 387.885 532.244 387.94 531.944C387.991 531.646 387.88 531.323 387.598 530.984L381.007 522.978L351.133 547.568C350.719 547.91 350.484 548.321 350.419 548.81C350.355 549.299 350.419 549.749 350.608 550.163L352.867 554.931L351.255 556.258L336.373 538.178L337.989 536.854Z" fill="#F9FAFA"/>
<path d="M560.487 291.411L564.732 294.541C565.146 294.862 565.588 295.014 566.059 295.001C566.53 294.991 566.962 294.823 567.358 294.497L597.231 269.906L590.753 262.034C590.459 261.675 590.153 261.491 589.843 261.475C589.53 261.462 589.204 261.522 588.862 261.651L581.112 264.336L579.63 262.536L589.463 254.442L617.261 288.211L607.428 296.305L605.946 294.505L610.07 287.414C610.264 287.104 610.388 286.798 610.442 286.498C610.494 286.201 610.383 285.877 610.101 285.539L603.509 277.532L573.636 302.123C573.222 302.465 572.987 302.876 572.922 303.365C572.857 303.851 572.922 304.304 573.111 304.718L575.369 309.485L573.758 310.812L558.875 292.73L560.487 291.411Z" fill="#F9FAFA"/>
<path d="M280.876 205.944L279.267 208.127C279.104 208.339 279.024 208.567 279.029 208.81C279.034 209.053 279.122 209.273 279.287 209.477L291.932 224.838L295.978 221.506C296.162 221.354 296.257 221.199 296.265 221.038C296.273 220.878 296.242 220.71 296.175 220.534L294.793 216.55L295.719 215.789L299.882 220.844L282.518 235.137L278.356 230.082L279.282 229.321L282.927 231.443C283.088 231.544 283.243 231.606 283.398 231.634C283.551 231.66 283.716 231.603 283.892 231.458L288.008 228.069L275.363 212.708C275.187 212.496 274.975 212.375 274.724 212.341C274.473 212.307 274.243 212.341 274.028 212.439L271.576 213.601L270.893 212.773L280.19 205.121L280.876 205.944Z" fill="#F9FAFA"/>
<path d="M230.646 139.136L236.513 141.18C237.046 141.366 237.586 141.379 238.135 141.216C238.683 141.053 239.123 140.719 239.451 140.217L248.645 126.246L250.735 95.3297C250.769 94.7321 250.751 94.1371 250.678 93.5499C250.606 92.9627 250.381 92.4143 249.998 91.8995L247.409 88.5262L248.782 86.4386L269.635 100.162L268.262 102.25L261.471 99.893L260.007 121.061L259.621 126.794L283.415 115.021L279.256 109.485L280.629 107.398L295.25 117.021L293.877 119.108L289.565 118.428C289.034 118.343 288.457 118.361 287.831 118.49C287.205 118.617 286.626 118.816 286.09 119.085L258.576 132.335L249.178 146.615C248.831 147.14 248.694 147.675 248.756 148.224C248.821 148.775 249.056 149.264 249.46 149.693L253.695 154.295L252.321 156.383L229.275 141.216L230.646 139.136Z" fill="#F9FAFA"/>
<path d="M327.277 360.453C326.827 358.252 326.705 356.26 326.915 354.472C327.121 352.685 327.574 351.133 328.273 349.818C328.971 348.504 329.861 347.436 330.942 346.618C332.024 345.798 333.203 345.258 334.486 344.996L355.375 340.728C355.753 340.651 356.051 340.469 356.265 340.187C356.483 339.903 356.596 339.59 356.612 339.243L356.86 335.935L358.363 335.627L361.55 351.221L360.047 351.528L358.521 348.582C358.356 348.274 358.118 348.036 357.81 347.868C357.502 347.7 357.166 347.653 356.806 347.726L338.183 351.531C337.624 351.645 337.034 351.808 336.411 352.02C335.788 352.235 335.177 352.511 334.579 352.855C333.982 353.2 333.431 353.621 332.926 354.118C332.419 354.615 332.008 355.204 331.685 355.887C331.361 356.568 331.152 357.357 331.051 358.249C330.95 359.142 331.017 360.156 331.25 361.289C331.48 362.422 331.822 363.397 332.269 364.212C332.719 365.027 333.232 365.705 333.814 366.243C334.396 366.783 335.024 367.205 335.705 367.513C336.383 367.818 337.065 368.033 337.748 368.159C338.434 368.286 339.101 368.335 339.756 368.315C340.41 368.294 341.008 368.227 341.549 368.115L360.05 364.333C360.428 364.256 360.717 364.072 360.914 363.785C361.113 363.498 361.23 363.195 361.268 362.88L361.69 359.535L363.193 359.227L365.578 370.904L364.075 371.212L362.376 368.299C362.213 368.007 361.982 367.771 361.682 367.596C361.38 367.417 361.048 367.365 360.686 367.44L340.954 371.473C339.624 371.745 338.387 371.784 337.244 371.59C336.101 371.396 335.053 371.036 334.098 370.514C333.146 369.988 332.287 369.334 331.53 368.547C330.769 367.761 330.104 366.915 329.535 366.005C328.963 365.094 328.49 364.16 328.115 363.203C327.729 362.238 327.455 361.322 327.277 360.453Z" fill="#F9FAFA"/>
<path d="M268.078 358.964L267.912 363.372C267.886 363.877 267.992 364.317 268.23 364.692C268.468 365.062 268.82 365.326 269.286 365.481L302.959 376.664C303.446 376.824 303.906 376.814 304.341 376.63C304.778 376.447 305.114 376.172 305.352 375.808L307.825 372.165L309.755 372.807L303.112 392.809L301.182 392.167L301.368 387.8C301.394 387.366 301.286 386.934 301.04 386.515C300.792 386.093 300.437 385.803 299.974 385.651L266.301 374.468C265.814 374.307 265.367 374.318 264.955 374.496C264.544 374.677 264.203 374.967 263.928 375.368L261.432 378.966L259.502 378.325L266.145 358.323L268.078 358.964Z" fill="#F9FAFA"/>
<path d="M496.94 217.573C495.972 214.365 495.644 211.356 495.957 208.544C496.27 205.732 497.121 203.19 498.508 200.911C499.897 198.634 501.777 196.658 504.15 194.987C506.524 193.313 509.284 192.001 512.43 191.049C515.418 190.146 518.352 189.756 521.236 189.875C524.12 189.994 526.79 190.62 529.253 191.756C531.713 192.891 533.878 194.536 535.746 196.689C537.613 198.841 539.023 201.49 539.973 204.638C541.007 208.063 541.331 211.204 540.945 214.06C540.557 216.916 539.636 219.458 538.183 221.691C536.726 223.923 534.822 225.835 532.466 227.429C530.109 229.02 527.468 230.259 524.542 231.143C522.809 231.666 521.026 232.02 519.192 232.204C517.356 232.388 515.537 232.375 513.734 232.158C511.931 231.943 510.174 231.506 508.464 230.849C506.755 230.191 505.169 229.268 503.702 228.081C502.235 226.896 500.918 225.434 499.754 223.701C498.588 221.965 497.649 219.922 496.94 217.573ZM500.282 217.086C500.812 218.838 501.723 220.237 503.016 221.282C504.31 222.325 505.87 223.044 507.694 223.437C509.517 223.83 511.556 223.921 513.806 223.709C516.057 223.497 518.408 223.021 520.858 222.281C523.686 221.427 526.208 220.421 528.422 219.262C530.637 218.106 532.45 216.802 533.86 215.356C535.27 213.907 536.235 212.329 536.749 210.619C537.264 208.909 537.225 207.07 536.63 205.099C536.064 203.226 535.104 201.777 533.751 200.753C532.398 199.726 530.792 199.038 528.937 198.686C527.08 198.331 525.054 198.282 522.86 198.533C520.664 198.781 518.442 199.247 516.191 199.927C513.424 200.763 510.925 201.759 508.697 202.908C506.47 204.059 504.633 205.352 503.185 206.788C501.739 208.224 500.745 209.807 500.202 211.535C499.659 213.265 499.685 215.113 500.282 217.086Z" fill="#F9FAFA"/>
<path d="M140.413 64.0067C141.779 62.0536 143.316 60.5454 145.026 59.4822C146.736 58.419 148.531 57.7749 150.417 57.5472C152.3 57.3196 154.232 57.5006 156.214 58.0904C158.195 58.6803 160.143 59.6451 162.063 60.9851C163.884 62.2579 165.395 63.7247 166.598 65.3881C167.801 67.0515 168.628 68.8208 169.076 70.6989C169.526 72.5744 169.56 74.5094 169.179 76.5013C168.799 78.4932 167.938 80.4463 166.598 82.3658C165.139 84.4508 163.527 86.0159 161.76 87.0584C159.993 88.0983 158.167 88.7036 156.279 88.8744C154.39 89.0451 152.481 88.8201 150.554 88.207C148.627 87.5913 146.772 86.66 144.987 85.4132C143.931 84.6759 142.948 83.8351 142.035 82.8909C141.125 81.9467 140.33 80.9223 139.658 79.8203C138.985 78.7183 138.455 77.5438 138.069 76.2995C137.684 75.0552 137.5 73.7618 137.518 72.4192C137.534 71.0766 137.772 69.6978 138.227 68.2828C138.683 66.86 139.412 65.4372 140.413 64.0067ZM142.157 65.657C141.412 66.7254 141.031 67.8508 141.016 69.033C141.003 70.2152 141.288 71.4026 141.872 72.5977C142.457 73.7903 143.303 74.9699 144.413 76.134C145.522 77.2981 146.823 78.4027 148.316 79.4452C150.039 80.6481 151.713 81.6156 153.335 82.3425C154.957 83.0694 156.483 83.5092 157.913 83.6592C159.344 83.8093 160.65 83.654 161.833 83.1884C163.015 82.7228 164.026 81.8898 164.867 80.6895C165.664 79.5486 166.052 78.3742 166.029 77.1661C166.005 75.958 165.684 74.7577 165.064 73.5652C164.443 72.3726 163.579 71.2189 162.474 70.1014C161.367 68.9838 160.128 67.9465 158.757 66.9867C157.07 65.8071 155.415 64.8474 153.79 64.1101C152.165 63.3729 150.634 62.915 149.193 62.7391C147.755 62.5632 146.43 62.7054 145.225 63.1633C144.019 63.6264 142.998 64.4567 142.157 65.657Z" fill="#F9FAFA"/>
<path d="M390.859 235.997L395.141 239.324C395.627 239.712 396.139 239.922 396.685 239.953C397.226 239.981 397.743 239.818 398.229 239.467L433.556 213.882C434.066 213.512 434.392 213.067 434.536 212.542C434.676 212.017 434.64 211.461 434.42 210.879L432.56 205.796L434.586 204.329L448.844 224.018C450.575 226.408 451.977 228.832 453.053 231.295C454.127 233.757 454.743 236.145 454.9 238.46C455.058 240.775 454.696 242.961 453.806 245.021C452.919 247.08 451.38 248.903 449.189 250.492C446.866 252.176 444.486 253.296 442.059 253.857C439.633 254.419 437.268 254.486 434.968 254.059C432.669 253.632 430.498 252.748 428.465 251.405C426.429 250.06 424.634 248.316 423.079 246.169C422.725 245.68 422.401 245.09 422.099 244.397C421.799 243.701 421.532 242.977 421.305 242.214C421.074 241.453 420.888 240.685 420.748 239.909C420.606 239.133 420.513 238.408 420.464 237.736L405.059 248.893C404.549 249.26 404.236 249.724 404.117 250.282C403.998 250.841 404.045 251.382 404.254 251.904L406.464 257.541L404.438 259.008L388.831 237.462L390.859 235.997ZM425.48 241.241C426.233 242.281 427.065 243.055 427.971 243.562C428.879 244.069 429.813 244.379 430.772 244.493C431.73 244.607 432.689 244.578 433.647 244.41C434.601 244.239 435.507 243.999 436.36 243.683C437.211 243.37 437.982 243.016 438.675 242.615C439.364 242.216 439.92 241.865 440.341 241.559C441.689 240.581 442.892 239.5 443.942 238.318C444.993 237.136 445.753 235.868 446.224 234.515C446.695 233.162 446.809 231.721 446.563 230.195C446.32 228.669 445.588 227.065 444.367 225.381L442.01 222.127L422.621 236.171C422.727 236.499 422.88 236.877 423.087 237.304C423.294 237.726 423.527 238.165 423.788 238.618C424.047 239.071 424.323 239.521 424.613 239.968C424.903 240.421 425.19 240.843 425.48 241.241Z" fill="#F9FAFA"/>
<path d="M384.496 422.98L384.266 427.008C384.211 428.27 384.618 429.334 385.489 430.203L416.801 462.019L423.387 470.393L421.364 474.922L366.61 472.46C366.02 472.434 365.436 472.542 364.851 472.775C364.269 473.008 363.791 473.311 363.413 473.681L360.565 476.539L358.28 475.52L368.349 452.988L370.63 454.007L369.329 461.238L386.097 461.996L393.506 445.416L381.821 433.685L377.219 439.262L374.935 438.243L382.209 421.961L384.496 422.98ZM390.935 462.226L405.553 462.875L411.459 463.222L396.89 448.901L390.935 462.226Z" fill="#F9FAFA"/>
<path d="M376.326 91.3111L378.228 91.9655C378.825 92.1621 379.392 92.1104 379.924 91.8103L399.414 81.0981L404.321 79.0726L406.22 80.6557L397.634 106.579C397.544 106.858 397.515 107.153 397.549 107.464C397.583 107.774 397.663 108.046 397.79 108.276L398.775 110.027L397.978 110.984L388.536 103.11L389.333 102.153L392.624 103.754L395.254 95.8148L388.306 90.0202L381.102 94.0377L383.153 96.9997L382.356 97.9568L375.532 92.2682L376.326 91.3111ZM396.018 93.5306L398.307 86.6081L399.272 83.8221L390.435 88.8717L396.018 93.5306Z" fill="#F9FAFA"/>
<path d="M210.207 598.454L211.676 598.959C212.136 599.111 212.574 599.073 212.987 598.84L228.041 590.567L231.83 589.002L233.297 590.226L226.667 610.248C226.597 610.463 226.574 610.69 226.6 610.934C226.626 611.174 226.688 611.384 226.786 611.56L227.546 612.913L226.931 613.652L219.636 607.571L220.251 606.831L222.794 608.067L224.828 601.936L219.46 597.461L213.893 600.563L215.479 602.85L214.863 603.589L209.593 599.194L210.207 598.454ZM225.415 600.17L227.182 594.825L227.927 592.673L221.1 596.574L225.415 600.17Z" fill="#F9FAFA"/>
<path d="M160.319 109.804C160.989 108.306 161.74 106.86 162.57 105.466C163.403 104.071 164.282 102.736 165.214 101.461C166.142 100.186 167.107 98.9466 168.108 97.7463C169.107 96.546 170.116 95.3793 171.13 94.2463L186.129 99.8676L185.009 102.377L176.073 102.379C175.89 102.387 175.673 102.418 175.427 102.47C175.178 102.524 174.925 102.589 174.664 102.669C174.405 102.747 174.164 102.832 173.942 102.93C173.719 103.026 173.544 103.119 173.414 103.21C172.413 103.841 171.435 104.607 170.478 105.512C169.521 106.415 168.628 107.357 167.801 108.334C166.975 109.312 166.248 110.267 165.622 111.201C164.994 112.135 164.52 112.962 164.197 113.687C163.561 115.109 163.224 116.483 163.186 117.813C163.144 119.142 163.343 120.374 163.778 121.512C164.215 122.65 164.862 123.664 165.718 124.557C166.577 125.447 167.591 126.158 168.766 126.683C169.738 127.118 170.677 127.379 171.58 127.47C172.483 127.558 173.383 127.472 174.276 127.214C175.168 126.955 176.058 126.536 176.945 125.961C177.83 125.385 178.748 124.634 179.7 123.713C180.497 122.932 181.242 122.136 181.935 121.321C182.629 120.506 183.314 119.691 183.995 118.873C184.675 118.053 185.366 117.246 186.064 116.452C186.763 115.655 187.505 114.879 188.294 114.126C189.598 112.882 190.984 111.886 192.459 111.136C193.931 110.386 195.434 109.884 196.97 109.625C198.507 109.369 200.054 109.341 201.609 109.543C203.166 109.742 204.692 110.176 206.19 110.846C207.613 111.483 208.88 112.31 209.995 113.332C211.113 114.354 212.052 115.513 212.818 116.814C213.583 118.113 214.189 119.528 214.628 121.057C215.068 122.586 215.306 124.179 215.34 125.842C215.376 127.506 215.221 129.208 214.874 130.954C214.53 132.7 213.971 134.434 213.203 136.156C212.523 137.677 211.788 139.155 210.999 140.583C210.213 142.011 209.4 143.363 208.562 144.634C207.724 145.906 206.881 147.094 206.03 148.193C205.179 149.295 204.343 150.291 203.526 151.184L190.053 145.167L191.173 142.657L199.415 142.794C199.831 142.8 200.269 142.712 200.724 142.525C201.182 142.339 201.57 142.155 201.893 141.969C202.61 141.571 203.324 141.015 204.033 140.298C204.741 139.581 205.404 138.816 206.024 138.001C206.643 137.183 207.194 136.368 207.68 135.551C208.164 134.734 208.534 134.038 208.79 133.466C209.346 132.217 209.651 131.001 209.703 129.811C209.755 128.623 209.602 127.529 209.24 126.531C208.878 125.529 208.35 124.65 207.657 123.892C206.963 123.134 206.167 122.555 205.269 122.151C204.296 121.716 203.337 121.424 202.387 121.269C201.438 121.114 200.491 121.14 199.544 121.346C198.6 121.553 197.661 121.949 196.725 122.536C195.791 123.121 194.821 123.936 193.814 124.984C193.087 125.736 192.397 126.497 191.74 127.265C191.083 128.034 190.42 128.81 189.758 129.591C189.096 130.372 188.397 131.164 187.668 131.958C186.938 132.755 186.134 133.57 185.249 134.405C184.204 135.404 183.011 136.317 181.671 137.137C180.331 137.959 178.885 138.58 177.338 138.997C175.792 139.413 174.146 139.576 172.405 139.488C170.664 139.398 168.882 138.948 167.061 138.135C165.087 137.253 163.315 135.983 161.74 134.32C160.162 132.656 158.992 130.631 158.234 128.243C157.474 125.853 157.22 123.113 157.463 120.019C157.709 116.925 158.661 113.521 160.319 109.804Z" fill="#F9FAFA"/>
<path d="M501.933 87.8006C502.396 86.7633 502.916 85.7648 503.49 84.7998C504.067 83.8349 504.675 82.9115 505.319 82.0293C505.963 81.1472 506.628 80.2883 507.322 79.4605C508.012 78.6301 508.711 77.823 509.412 77.0392L519.79 80.9299L519.014 82.6657L512.832 82.6682C512.705 82.6734 512.555 82.6942 512.384 82.733C512.213 82.7718 512.037 82.8157 511.856 82.87C511.678 82.9244 511.51 82.9839 511.357 83.0511C511.204 83.1158 511.083 83.1805 510.992 83.2452C510.299 83.6824 509.621 84.2127 508.959 84.8387C508.297 85.4647 507.679 86.1166 507.107 86.7918C506.535 87.4696 506.033 88.1292 505.601 88.7733C505.167 89.4201 504.841 89.9918 504.616 90.4936C504.176 91.4767 503.943 92.4286 503.915 93.3495C503.886 94.2678 504.023 95.1216 504.323 95.9106C504.626 96.697 505.074 97.398 505.666 98.0163C506.261 98.632 506.962 99.1234 507.774 99.4856C508.447 99.7857 509.096 99.9667 509.722 100.029C510.348 100.088 510.969 100.031 511.587 99.8503C512.206 99.6718 512.821 99.3821 513.434 98.9838C514.047 98.5854 514.681 98.0655 515.341 97.4291C515.892 96.8884 516.407 96.3374 516.888 95.7734C517.366 95.2095 517.842 94.6456 518.313 94.079C518.784 93.5125 519.263 92.9537 519.744 92.4027C520.227 91.8517 520.742 91.3163 521.286 90.7937C522.188 89.9323 523.148 89.2441 524.167 88.7268C525.184 88.2068 526.226 87.8602 527.29 87.6817C528.353 87.5058 529.424 87.4851 530.5 87.6248C531.576 87.7644 532.634 88.0645 533.669 88.5276C534.652 88.9673 535.532 89.5417 536.302 90.2479C537.076 90.9541 537.725 91.7586 538.256 92.6588C538.786 93.559 539.202 94.5369 539.508 95.5949C539.813 96.653 539.976 97.755 540.002 98.9061C540.028 100.057 539.919 101.234 539.678 102.442C539.44 103.651 539.055 104.851 538.522 106.041C538.051 107.094 537.544 108.116 536.998 109.104C536.455 110.092 535.891 111.026 535.312 111.905C534.732 112.785 534.148 113.607 533.558 114.368C532.968 115.131 532.391 115.819 531.825 116.437L522.501 112.273L523.277 110.537L528.982 110.632C529.271 110.635 529.571 110.576 529.887 110.446C530.203 110.319 530.474 110.19 530.697 110.061C531.193 109.784 531.685 109.399 532.176 108.904C532.668 108.41 533.126 107.877 533.555 107.316C533.985 106.752 534.365 106.186 534.701 105.622C535.035 105.055 535.291 104.577 535.469 104.178C535.855 103.314 536.067 102.473 536.101 101.648C536.137 100.826 536.031 100.068 535.78 99.377C535.529 98.6837 535.164 98.0758 534.683 97.5507C534.202 97.0255 533.653 96.6246 533.03 96.3478C532.357 96.0477 531.693 95.8433 531.036 95.7372C530.378 95.6311 529.724 95.6492 529.069 95.7915C528.418 95.9338 527.766 96.2081 527.119 96.6142C526.472 97.0178 525.8 97.5817 525.104 98.3086C524.602 98.8312 524.123 99.3563 523.668 99.8892C523.213 100.422 522.755 100.958 522.297 101.498C521.839 102.039 521.355 102.585 520.851 103.136C520.346 103.687 519.788 104.251 519.177 104.828C518.455 105.518 517.63 106.149 516.702 106.719C515.773 107.288 514.774 107.717 513.703 108.004C512.632 108.291 511.494 108.405 510.291 108.343C509.086 108.281 507.854 107.968 506.595 107.407C505.229 106.796 504.003 105.917 502.911 104.768C501.819 103.617 501.012 102.217 500.484 100.562C499.957 98.9062 499.783 97.0126 499.951 94.8706C500.125 92.7287 500.784 90.3746 501.933 87.8006Z" fill="#F9FAFA"/>
<path d="M371.445 278.547L370.622 283.907C370.519 284.52 370.586 285.071 370.824 285.563C371.065 286.049 371.455 286.421 372.001 286.675L411.542 305.086C412.111 305.35 412.662 305.417 413.19 305.29C413.717 305.156 414.183 304.853 414.587 304.38L418.123 300.282L420.389 301.337L409.263 325.232C408.466 326.942 407.449 328.707 406.21 330.525C404.971 332.344 403.522 334.046 401.867 335.627C400.211 337.207 398.336 338.596 396.243 339.791C394.148 340.987 391.835 341.814 389.3 342.277C386.762 342.74 384.002 342.774 381.019 342.381C378.039 341.988 374.839 340.994 371.419 339.401C367.058 337.37 363.594 334.92 361.028 332.054C358.459 329.185 356.682 326.073 355.696 322.721C354.708 319.368 354.447 315.852 354.904 312.179C355.365 308.503 356.436 304.858 358.12 301.242L369.176 277.494L371.445 278.547ZM362.049 303.384C360.896 305.859 360.345 308.218 360.402 310.461C360.459 312.702 361.072 314.833 362.241 316.856C363.41 318.879 365.112 320.773 367.35 322.534C369.588 324.299 372.317 325.933 375.537 327.431C379.056 329.069 382.411 330.15 385.606 330.673C388.8 331.193 391.716 331.195 394.355 330.675C396.993 330.155 399.319 329.128 401.329 327.594C403.339 326.058 404.917 324.063 406.058 321.611L408.445 316.481L365.299 296.391L362.049 303.384Z" fill="#F9FAFA"/>
<path d="M584.545 381.91L584.038 385.218C583.973 385.596 584.015 385.938 584.162 386.24C584.31 386.54 584.553 386.768 584.889 386.926L609.289 398.287C609.641 398.45 609.979 398.492 610.305 398.414C610.631 398.331 610.918 398.145 611.167 397.853L613.348 395.323L614.747 395.975L607.881 410.72C607.39 411.775 606.761 412.864 605.998 413.987C605.233 415.11 604.34 416.16 603.318 417.135C602.296 418.111 601.14 418.967 599.847 419.704C598.553 420.441 597.125 420.954 595.56 421.238C593.995 421.523 592.29 421.543 590.451 421.303C588.612 421.06 586.638 420.447 584.527 419.464C581.837 418.212 579.697 416.698 578.114 414.929C576.528 413.159 575.432 411.24 574.824 409.17C574.216 407.101 574.053 404.933 574.337 402.667C574.622 400.398 575.282 398.15 576.321 395.918L583.143 381.263L584.545 381.91ZM578.748 397.237C578.037 398.766 577.698 400.222 577.731 401.606C577.768 402.99 578.145 404.304 578.867 405.551C579.589 406.798 580.639 407.967 582.02 409.057C583.402 410.146 585.086 411.155 587.073 412.078C589.243 413.09 591.315 413.757 593.286 414.078C595.257 414.398 597.055 414.401 598.685 414.08C600.312 413.76 601.748 413.126 602.99 412.179C604.231 411.232 605.204 410.001 605.908 408.487L607.382 405.324L580.758 392.927L578.748 397.237Z" fill="#F9FAFA"/>
<path d="M297.628 252.463L302.065 253.77C302.502 253.91 302.955 253.91 303.431 253.772C303.907 253.635 304.282 253.348 304.559 252.919L324.625 221.592C324.915 221.141 325.029 220.673 324.964 220.19C324.899 219.706 324.703 219.289 324.374 218.94L321.314 215.484L322.465 213.689L355.088 234.583L348.375 245.065L346.373 243.782L347.969 236.042C348.047 235.703 348.062 235.377 348.018 235.056C347.972 234.736 347.775 234.464 347.421 234.239L333.876 225.565L324.258 240.579L333.092 246.237C333.485 246.488 333.829 246.578 334.124 246.503C334.422 246.431 334.706 246.286 334.981 246.074L340.159 242.333L341.955 243.484L332.244 258.646L330.448 257.495L331.643 251.284C331.726 250.896 331.744 250.554 331.698 250.259C331.649 249.965 331.429 249.693 331.038 249.442L322.204 243.784L312.925 258.271C312.635 258.721 312.526 259.184 312.596 259.658C312.666 260.134 312.876 260.55 313.225 260.912L316.738 264.697L315.587 266.492L296.48 254.254L297.628 252.463Z" fill="#F9FAFA"/>
<path d="M416.035 341.43C414.878 340.034 414.03 338.507 413.494 336.857C412.959 335.204 412.775 333.52 412.943 331.805C413.114 330.09 413.652 328.403 414.56 326.737C415.468 325.074 416.782 323.527 418.505 322.099C420.135 320.746 421.855 319.778 423.656 319.194C425.459 318.612 427.238 318.392 428.992 318.537C430.746 318.681 432.43 319.183 434.042 320.04C435.656 320.896 437.094 322.088 438.362 323.617C439.104 324.515 439.756 325.366 440.31 326.17C440.866 326.975 441.345 327.733 441.748 328.45C442.152 329.163 442.499 329.836 442.788 330.465C443.078 331.093 443.329 331.681 443.541 332.226L438.357 336.523L437.483 335.468L439.319 332.113C439.423 331.924 439.469 331.735 439.464 331.541C439.459 331.347 439.438 331.148 439.402 330.936C439.314 330.457 439.164 329.95 438.952 329.412C438.74 328.874 438.489 328.341 438.207 327.811C437.922 327.28 437.612 326.765 437.273 326.264C436.934 325.762 436.595 325.306 436.259 324.9C435.659 324.176 434.896 323.625 433.972 323.247C433.049 322.87 432.001 322.714 430.829 322.784C429.657 322.854 428.395 323.177 427.042 323.757C425.689 324.336 424.289 325.224 422.843 326.424C421.467 327.565 420.295 328.747 419.33 329.968C418.365 331.189 417.659 332.392 417.214 333.579C416.769 334.764 416.606 335.915 416.723 337.033C416.839 338.148 417.287 339.175 418.063 340.114C418.402 340.52 418.766 340.885 419.16 341.203C419.553 341.521 419.936 341.798 420.308 342.031C420.681 342.263 421.033 342.452 421.364 342.602C421.692 342.75 421.961 342.858 422.173 342.926L426.791 339.097C427.026 338.903 427.166 338.683 427.213 338.44C427.259 338.194 427.22 337.925 427.099 337.633L425.901 335.038L426.835 334.265L434.973 344.079L434.042 344.853L431.866 343.381C431.621 343.208 431.365 343.122 431.101 343.125C430.837 343.127 430.594 343.223 430.371 343.409L428.017 345.363C427.192 346.048 426.483 346.635 425.891 347.124C425.298 347.613 424.817 348.03 424.447 348.371C423.803 348.03 423.118 347.613 422.391 347.122C421.666 346.63 420.932 346.087 420.187 345.489C419.442 344.894 418.717 344.253 418.011 343.567C417.302 342.874 416.645 342.165 416.035 341.43Z" fill="#F9FAFA"/>
<path d="M296.687 36.2436L297.176 41.645C297.233 42.2116 297.432 42.7186 297.779 43.1609C298.123 43.6033 298.591 43.8827 299.181 43.9965L341.986 52.3729C342.602 52.4944 343.155 52.4142 343.641 52.1348C344.128 51.8529 344.503 51.4623 344.772 50.9578L347.219 46.1307L349.674 46.6118L344.697 72.0383L342.242 71.5572L341.787 66.2049C341.73 65.6384 341.523 65.1236 341.168 64.6632C340.814 64.2027 340.341 63.9155 339.751 63.8017L321.728 60.2758L317.271 83.0456L335.294 86.5715C335.909 86.6931 336.463 86.6129 336.949 86.3335C337.436 86.0515 337.811 85.6609 338.08 85.1539L340.527 80.3294L342.982 80.8104L338.007 106.234L335.552 105.753L335.105 100.362C335.074 99.8008 334.872 99.2938 334.502 98.8463C334.129 98.3961 333.648 98.1142 333.059 98.0004L290.253 89.624C289.638 89.5024 289.092 89.5852 288.618 89.8672C288.145 90.1517 287.778 90.5449 287.511 91.0494L285.023 95.8661L282.568 95.385L287.542 69.961L289.997 70.4422L290.486 75.8411C290.543 76.4102 290.742 76.9172 291.086 77.3596C291.43 77.8019 291.899 78.0813 292.488 78.1951L312.767 82.1634L317.224 59.3936L296.946 55.4254C296.33 55.3038 295.784 55.3917 295.308 55.6892C294.835 55.9867 294.462 56.3877 294.196 56.8922L291.715 61.6701L289.26 61.1889L294.237 35.7624L296.687 36.2436Z" fill="#F9FAFA"/>
<path d="M274.669 470.515L280.42 471.606C281.077 471.741 281.675 471.692 282.213 471.451C282.746 471.21 283.162 470.802 283.457 470.225L304.825 428.284C305.133 427.678 305.218 427.076 305.078 426.475C304.939 425.873 304.639 425.373 304.181 424.972L299.897 421.002L301.12 418.598L326.312 431.432L325.085 433.838L319.12 432.586C318.489 432.464 317.886 432.521 317.317 432.762C316.748 433 316.316 433.411 316.021 433.988L293.73 477.742L312.653 487.384C312.914 487.516 313.175 487.557 313.431 487.508C313.69 487.456 313.944 487.366 314.197 487.226C314.451 487.091 314.676 486.923 314.875 486.727C315.071 486.53 315.253 486.341 315.413 486.157L324.105 477.478L326.746 478.824L318.152 495.695L273.451 472.923L274.669 470.515Z" fill="#F9FAFA"/>
<path d="M34.0322 379.195C31.7014 375.349 30.2269 371.492 29.606 367.622C28.9852 363.749 29.1869 360.006 30.2165 356.389C31.2461 352.77 33.088 349.351 35.7473 346.122C38.404 342.894 41.8472 339.999 46.0715 337.438C48.7981 335.788 51.5454 334.523 54.3211 333.64C57.0969 332.758 59.8338 332.241 62.5397 332.083C65.2456 331.925 67.8661 332.112 70.4038 332.647C72.939 333.183 75.3396 334.044 77.6083 335.229C79.8718 336.414 81.9672 337.914 83.8841 339.727C85.7984 341.543 87.485 343.646 88.9337 346.042C89.689 347.289 90.4574 348.758 91.2334 350.442C92.0121 352.129 92.7416 353.854 93.4271 355.616C94.11 357.375 94.7102 359.085 95.2276 360.738C95.7424 362.394 96.1149 363.811 96.3425 364.996L83.4702 372.796L81.9206 370.237L86.8926 363.361C87.2031 362.893 87.3945 362.464 87.4695 362.07C87.5445 361.677 87.5833 361.253 87.5859 360.798C87.5212 358.679 87.2263 356.628 86.7064 354.649C86.1864 352.664 85.3612 350.745 84.2333 348.888C82.9994 346.849 81.4058 345.281 79.4527 344.185C77.4996 343.088 75.249 342.503 72.6984 342.431C70.1477 342.356 67.3332 342.808 64.2522 343.786C61.1712 344.767 57.8885 346.311 54.3987 348.424C50.7823 350.616 47.7945 352.923 45.4326 355.344C43.0708 357.768 41.3686 360.288 40.326 362.903C39.2809 365.521 38.9162 368.206 39.2266 370.959C39.5397 373.711 40.5486 376.503 42.2611 379.33C43.389 381.19 44.5893 382.698 45.8672 383.857C47.1426 385.016 48.4282 385.963 49.7243 386.69C51.0203 387.419 52.3008 387.983 53.5684 388.382C54.8385 388.78 56.0259 389.147 57.1357 389.484L58.1316 391.126L53.9667 393.648C52.4586 393.17 50.7952 392.505 48.974 391.659C47.1555 390.813 45.3266 389.778 43.4925 388.557C41.6584 387.336 39.9122 385.95 38.254 384.395C36.5984 382.838 35.1911 381.105 34.0322 379.195Z" fill="#F9FAFA"/>
<path d="M418.275 42.4818C416.034 43.4027 413.859 43.8684 411.748 43.8787C409.635 43.8891 407.661 43.47 405.819 42.6215C403.98 41.773 402.311 40.508 400.811 38.8265C399.313 37.145 398.058 35.073 397.044 32.6103C396.392 31.0219 395.947 29.4543 395.707 27.9047C395.466 26.3552 395.42 24.8547 395.559 23.4009C395.699 21.9471 396.017 20.5683 396.511 19.2619C397.008 17.9581 397.665 16.75 398.482 15.6402C399.302 14.533 400.273 13.5423 401.398 12.6731C402.523 11.8039 403.783 11.0822 405.177 10.5079C405.904 10.2104 406.75 9.92326 407.71 9.64905C408.672 9.37484 409.653 9.12906 410.646 8.90918C411.639 8.69188 412.599 8.5134 413.523 8.37629C414.446 8.23919 415.233 8.15895 415.882 8.13567L418.965 15.6351L417.475 16.2482L414.229 13.0301C414.006 12.8258 413.792 12.6887 413.59 12.6162C413.388 12.5438 413.166 12.4895 412.922 12.4481C411.789 12.3058 410.674 12.2928 409.575 12.4066C408.476 12.5204 407.387 12.7998 406.303 13.2448C405.115 13.7337 404.148 14.4503 403.403 15.3997C402.658 16.3491 402.158 17.4977 401.908 18.8506C401.657 20.201 401.664 21.7375 401.928 23.4604C402.195 25.1807 402.743 27.0588 403.579 29.0895C404.445 31.1978 405.426 32.9776 406.517 34.4366C407.612 35.8956 408.812 37.0105 410.116 37.7814C411.422 38.5549 412.822 38.9714 414.312 39.036C415.804 39.0981 417.372 38.7929 419.02 38.1151C420.104 37.6702 421.006 37.1554 421.728 36.5707C422.45 35.9887 423.06 35.3833 423.557 34.7521C424.054 34.1235 424.46 33.4872 424.778 32.8456C425.094 32.2041 425.389 31.6014 425.66 31.0374L426.617 30.6442L427.616 33.0707C427.236 33.8338 426.744 34.6642 426.141 35.5619C425.539 36.4595 424.838 37.3468 424.036 38.2238C423.234 39.0981 422.352 39.913 421.384 40.6658C420.427 41.4186 419.387 42.0239 418.275 42.4818Z" fill="#F9FAFA"/>
<path d="M495.184 502.897C495.228 502.672 495.233 502.437 495.199 502.193C495.165 501.95 495.072 501.723 494.917 501.513L493.867 500.129L494.433 499.278L502.952 504.954L502.385 505.805L499.589 504.806L496.524 519.254L495.947 521.75L509.732 511.85L507.947 509.512L508.514 508.661L514.676 512.769L514.109 513.62L512.363 513.34C512.12 513.299 511.877 513.307 511.636 513.358C511.393 513.41 511.176 513.501 510.982 513.627L496.115 523.972L492.416 526.078L490.519 524.816L495.184 502.897Z" fill="#F9FAFA"/>
<path d="M436.58 262.669L436.74 268.091C436.75 268.712 436.913 269.242 437.239 269.682C437.563 270.117 438.015 270.412 438.597 270.562L480.815 281.517C481.423 281.675 481.977 281.641 482.474 281.419C482.968 281.191 483.371 280.811 483.682 280.27L486.419 275.601L488.84 276.23L482.794 299.522C481.703 303.728 480.474 307.081 479.105 309.577C477.737 312.076 476.291 313.952 474.765 315.206C473.238 316.461 471.671 317.193 470.067 317.397C468.46 317.602 466.877 317.501 465.317 317.097C463.597 316.65 462.086 315.941 460.785 314.968C459.484 313.995 458.4 312.818 457.533 311.434C456.664 310.053 456.015 308.47 455.588 306.695C455.159 304.915 454.944 302.996 454.944 300.937C454.152 303.33 453.169 305.43 451.995 307.244C450.818 309.055 449.483 310.524 447.993 311.647C446.503 312.769 444.876 313.52 443.111 313.895C441.347 314.27 439.503 314.205 437.57 313.706C435.48 313.163 433.724 312.368 432.301 311.323C430.881 310.276 429.73 309.052 428.85 307.652C427.97 306.25 427.334 304.701 426.943 303.006C426.55 301.309 426.338 299.54 426.31 297.698C426.279 295.854 426.408 293.968 426.698 292.041C426.985 290.111 427.37 288.22 427.851 286.368L434.163 262.043L436.58 262.669ZM458.871 290.858C458.335 292.92 458.097 294.708 458.157 296.221C458.216 297.732 458.534 299.023 459.122 300.091C459.704 301.159 460.524 302.036 461.574 302.717C462.627 303.4 463.889 303.933 465.374 304.318C469.208 305.314 472.198 305.192 474.34 303.953C476.482 302.717 477.993 300.407 478.87 297.02L479.837 293.29L459.603 288.039L458.871 290.858ZM432.009 288.121C431.116 291.559 431.24 294.346 432.381 296.475C433.522 298.609 435.904 300.143 439.529 301.084C441.645 301.633 443.5 301.86 445.09 301.765C446.681 301.672 448.063 301.245 449.232 300.489C450.401 299.734 451.392 298.642 452.199 297.214C453.006 295.786 453.681 294.027 454.225 291.937L455.513 286.975L433.77 281.333L432.009 288.121Z" fill="#F9FAFA"/>
<path d="M319.506 143.259L323.389 144.687L311.613 128.033C311.427 127.769 311.197 127.598 310.93 127.526C310.661 127.453 310.356 127.466 310.009 127.567L307.166 128.413L306.388 127.311L315.131 121.129L315.91 122.231L314.164 124.629C313.983 124.882 313.877 125.161 313.846 125.464C313.815 125.767 313.89 126.044 314.068 126.297L327.53 145.337C327.727 145.613 327.975 145.787 328.275 145.854C328.575 145.921 328.862 145.906 329.131 145.802L332.132 144.793L332.911 145.895L324.998 151.491L303.105 143.559L299.656 142.284L310.358 157.423C310.555 157.699 310.783 157.87 311.047 157.937C311.31 158.005 311.616 157.986 311.96 157.888L314.805 157.042L315.584 158.144L306.822 164.34L306.043 163.238L307.79 160.837C307.973 160.563 308.087 160.278 308.126 159.991C308.165 159.702 308.09 159.425 307.903 159.161L295.31 141.35L292.799 136.65L295.655 134.632L319.506 143.259Z" fill="#F9FAFA"/>
<path d="M30.8248 753.2C30.5481 752.38 30.3773 751.656 30.3074 751.033C30.2376 750.409 30.2635 749.819 30.385 749.274C30.504 748.725 30.7162 748.19 31.0137 747.662C31.3138 747.137 31.6992 746.55 32.1726 745.903C32.6253 745.264 33.1607 744.524 33.7713 743.691C34.3843 742.855 34.9638 742.051 35.5148 741.277C36.1693 740.388 36.829 739.485 37.4964 738.572C36.7514 735.819 36.5496 733.232 36.8911 730.806C37.23 728.379 38.0216 726.165 39.2659 724.165C40.5102 722.166 42.1735 720.406 44.2611 718.893C46.3488 717.38 48.7675 716.159 51.5173 715.233C54.2517 714.312 56.9498 713.867 59.6169 713.893C62.2839 713.919 64.77 714.42 67.0775 715.398C69.3824 716.376 71.4312 717.833 73.2187 719.767C75.0062 721.702 76.3825 724.106 77.3526 726.987C78.408 730.12 78.796 733.012 78.5218 735.661C78.2476 738.31 77.469 740.685 76.191 742.791C74.9105 744.894 73.2058 746.715 71.0768 748.254C68.9477 749.791 66.5445 751.012 63.8645 751.912C61.9502 752.556 59.9713 752.97 57.9225 753.151C55.8736 753.332 53.861 753.231 51.8847 752.841C49.9057 752.453 48.0199 751.739 46.2194 750.701C44.4189 749.664 42.8228 748.244 41.4233 746.443L36.4461 753.806C36.0787 754.336 35.7658 754.934 35.5122 755.596C35.2587 756.258 35.1397 756.85 35.1526 757.376L35.3726 761.196L33.7066 761.758L30.8248 753.2ZM41.0456 739.63C41.5863 741.233 42.4658 742.496 43.692 743.425C44.9156 744.351 46.3772 744.969 48.0742 745.279C49.7712 745.59 51.6544 745.616 53.7265 745.354C55.7986 745.093 57.9561 744.586 60.1963 743.831C62.7832 742.959 65.083 741.958 67.0956 740.825C69.1056 739.692 70.743 738.437 72.0029 737.058C73.2627 735.679 74.1086 734.195 74.5354 732.601C74.9623 731.008 74.8717 729.308 74.2664 727.505C73.6895 725.792 72.7608 724.481 71.4829 723.573C70.2024 722.665 68.702 722.075 66.9766 721.803C65.2511 721.532 63.3808 721.542 61.3604 721.837C59.3401 722.132 57.299 722.623 55.2399 723.317C52.7073 724.17 50.4282 725.159 48.4053 726.286C46.3798 727.414 44.7215 728.661 43.4281 730.03C42.1347 731.398 41.2629 732.888 40.8102 734.502C40.3601 736.119 40.4377 737.827 41.0456 739.63Z" fill="#F9FAFA"/>
<path d="M321.916 599.558C322.4 599.705 322.803 599.868 323.127 600.049C323.447 600.23 323.719 600.442 323.939 600.686C324.159 600.929 324.345 601.213 324.493 601.534C324.643 601.855 324.79 602.24 324.938 602.685C325.088 603.12 325.258 603.624 325.447 604.201C325.636 604.778 325.822 605.329 326.003 605.854C326.205 606.47 326.412 607.091 326.619 607.719C328.184 608.301 329.488 609.085 330.528 610.073C331.568 611.062 332.354 612.192 332.884 613.467C333.415 614.743 333.686 616.134 333.697 617.643C333.707 619.151 333.466 620.721 332.97 622.348C332.478 623.965 331.772 625.403 330.851 626.666C329.93 627.928 328.846 628.942 327.594 629.71C326.342 630.476 324.953 630.957 323.422 631.151C321.89 631.345 320.276 631.182 318.571 630.665C316.719 630.101 315.208 629.302 314.039 628.27C312.87 627.237 312.003 626.058 311.434 624.731C310.867 623.404 310.578 621.973 310.57 620.434C310.562 618.895 310.798 617.335 311.281 615.749C311.625 614.619 312.104 613.532 312.714 612.495C313.325 611.455 314.06 610.531 314.918 609.722C315.777 608.912 316.76 608.255 317.868 607.748C318.975 607.243 320.196 606.964 321.531 606.912L319.715 602.033C319.588 601.676 319.409 601.325 319.179 600.978C318.949 600.631 318.708 600.373 318.452 600.202L316.556 599.007L316.856 598.021L321.916 599.558ZM324.909 609.049C323.96 608.762 323.057 608.751 322.198 609.018C321.339 609.287 320.548 609.771 319.821 610.477C319.094 611.181 318.442 612.07 317.86 613.147C317.278 614.223 316.786 615.426 316.383 616.75C315.917 618.279 315.612 619.717 315.467 621.062C315.322 622.408 315.363 623.616 315.591 624.684C315.819 625.755 316.24 626.663 316.853 627.408C317.469 628.153 318.31 628.689 319.376 629.015C320.39 629.322 321.329 629.328 322.198 629.025C323.067 628.725 323.859 628.21 324.575 627.478C325.292 626.748 325.923 625.851 326.472 624.788C327.02 623.724 327.478 622.584 327.848 621.365C328.303 619.867 328.608 618.445 328.758 617.094C328.911 615.746 328.88 614.528 328.668 613.447C328.456 612.363 328.042 611.439 327.426 610.676C326.816 609.918 325.975 609.375 324.909 609.049Z" fill="#F9FAFA"/>
<path d="M73.7547 70.2965L74.836 72.7825C74.9524 73.0438 75.1257 73.2507 75.3611 73.4085C75.5939 73.5637 75.8604 73.6232 76.1579 73.5844L97.792 70.8268C98.1025 70.788 98.3534 70.6638 98.5396 70.4543C98.7259 70.2448 98.8423 69.999 98.8914 69.717L99.295 67.0422L100.534 66.8844L103.4 89.3722L96.1209 90.2984L95.9398 88.8755L100.061 86.6767C100.255 86.5706 100.41 86.4491 100.532 86.3171C100.651 86.1826 100.697 85.9963 100.666 85.7531L99.4838 76.4818L89.4208 77.7649L90.1711 83.6604C90.2047 83.932 90.2926 84.1208 90.4297 84.2269C90.5668 84.333 90.735 84.408 90.9342 84.452L94.442 85.3884L94.605 86.6689L84.379 87.9727L84.216 86.6922L87.3358 84.9099C87.5298 84.8012 87.6851 84.6822 87.8066 84.5503C87.9282 84.4183 87.9696 84.2165 87.936 83.9449L87.1858 78.0494L75.9613 79.48L77.3659 90.5001C77.397 90.7432 77.4849 90.9191 77.6298 91.0252C77.7747 91.1313 77.9584 91.2038 78.1834 91.2451L83.2822 92.1867L83.4633 93.6096L75.5939 94.6133L72.5155 70.4569L73.7547 70.2965Z" fill="#F9FAFA"/>
<path d="M146.859 195.366L146.171 198.493C146.101 198.822 146.124 199.142 146.24 199.453C146.354 199.763 146.569 200.004 146.879 200.175L169.473 212.514C169.799 212.692 170.13 212.744 170.464 212.669C170.8 212.594 171.075 212.442 171.294 212.214L173.532 209.935L174.828 210.641L167.846 223.426C167.011 224.954 166.178 226.245 165.345 227.298C164.512 228.348 163.692 229.202 162.884 229.856C162.077 230.508 161.294 230.987 160.533 231.287C159.77 231.587 159.033 231.755 158.316 231.786C157.602 231.817 156.911 231.74 156.252 231.554C155.592 231.367 154.971 231.116 154.389 230.801C153.186 230.144 152.26 229.362 151.616 228.46C150.969 227.554 150.511 226.62 150.24 225.653C149.968 224.688 149.841 223.731 149.862 222.787C149.883 221.84 149.96 221.009 150.092 220.293L135.73 221.659C135.497 221.679 135.244 221.726 134.962 221.803C134.682 221.879 134.403 221.974 134.129 222.093C133.854 222.21 133.593 222.339 133.35 222.481C133.107 222.624 132.913 222.776 132.771 222.937L130.533 225.27L129.237 224.564L132.946 217.768C133.293 217.132 133.629 216.625 133.955 216.252C134.279 215.877 134.631 215.587 135.011 215.38C135.388 215.173 135.82 215.034 136.304 214.956C136.788 214.881 137.36 214.822 138.027 214.78L151.039 213.919L153.334 211.534L143.586 206.21C143.26 206.031 142.945 205.964 142.637 206.008C142.329 206.052 142.063 206.194 141.835 206.44L139.333 209.154L138.037 208.447L145.563 194.667L146.859 195.366ZM153.639 215.362C153.168 216.224 152.93 217.07 152.93 217.897C152.93 218.725 153.098 219.506 153.442 220.244C153.784 220.981 154.268 221.653 154.891 222.261C155.517 222.867 156.21 223.381 156.973 223.798C159.04 224.926 160.805 225.273 162.264 224.838C163.723 224.403 164.926 223.322 165.867 221.597L167.225 219.111L155.398 212.651C155.3 212.765 155.173 212.938 155.018 213.174C154.86 213.409 154.694 213.663 154.518 213.934C154.343 214.206 154.174 214.472 154.014 214.734C153.846 214.997 153.724 215.207 153.639 215.362Z" fill="#F9FAFA"/>
<path d="M45.6574 84.3558L42.5273 88.6009C42.2065 89.0148 42.0539 89.4572 42.0668 89.928C42.0772 90.3988 42.2453 90.8307 42.5713 91.2239L67.1622 121.097L75.0341 114.617C75.3937 114.322 75.5773 114.02 75.5929 113.707C75.6058 113.394 75.5463 113.068 75.4144 112.726L72.7292 104.976L74.5297 103.494L82.624 113.326L48.8549 141.125L40.7605 131.292L42.5609 129.81L49.6516 133.933C49.962 134.127 50.2673 134.252 50.5673 134.306C50.8648 134.358 51.1856 134.246 51.5271 133.964L59.5335 127.373L34.9425 97.4998C34.6011 97.0859 34.1898 96.8505 33.7009 96.7858C33.212 96.7211 32.7618 96.7858 32.3479 96.9746L27.5803 99.233L26.2532 97.6214L44.3329 82.739L45.6574 84.3558Z" fill="#F9FAFA"/>
<path d="M40.5125 396.598L37.3824 400.843C37.0616 401.257 36.909 401.699 36.9219 402.17C36.9323 402.641 37.1004 403.073 37.4264 403.466L62.0173 433.34L69.8891 426.859C70.2487 426.564 70.4324 426.262 70.4479 425.949C70.4609 425.636 70.4014 425.31 70.272 424.968L67.5868 417.218L69.3873 415.736L77.4817 425.569L43.7125 453.367L35.6181 443.534L37.4185 442.052L44.5092 446.176C44.8196 446.37 45.1249 446.494 45.425 446.548C45.7225 446.6 46.0458 446.489 46.3847 446.207L54.3911 439.615L29.8002 409.742C29.4587 409.328 29.0474 409.093 28.5585 409.028C28.0696 408.963 27.6194 409.028 27.2055 409.217L22.4379 411.475L21.1109 409.864L39.1906 394.981L40.5125 396.598Z" fill="#F9FAFA"/>
<path d="M158.674 647.565L154.266 647.399C153.761 647.373 153.321 647.477 152.946 647.717C152.576 647.955 152.312 648.307 152.157 648.773L140.974 682.446C140.814 682.933 140.824 683.393 141.008 683.828C141.191 684.265 141.466 684.601 141.83 684.839L145.473 687.312L144.831 689.242L124.829 682.599L125.471 680.669L129.838 680.856C130.272 680.881 130.704 680.773 131.123 680.527C131.545 680.281 131.835 679.924 131.987 679.461L143.17 645.788C143.331 645.301 143.323 644.854 143.142 644.443C142.961 644.031 142.671 643.69 142.27 643.416L138.672 640.919L139.313 638.989L159.315 645.632L158.674 647.565Z" fill="#F9FAFA"/>
<path d="M136.954 146.009C140.162 145.042 143.17 144.713 145.982 145.026C148.794 145.339 151.337 146.19 153.616 147.577C155.892 148.966 157.869 150.847 159.543 153.219C161.216 155.594 162.528 158.351 163.48 161.5C164.383 164.487 164.773 167.421 164.654 170.305C164.535 173.19 163.909 175.859 162.774 178.322C161.638 180.782 159.995 182.947 157.84 184.815C155.688 186.683 153.039 188.09 149.891 189.042C146.466 190.077 143.325 190.4 140.469 190.015C137.613 189.627 135.071 188.706 132.838 187.252C130.606 185.796 128.694 183.892 127.1 181.535C125.509 179.178 124.27 176.537 123.388 173.611C122.866 171.878 122.511 170.096 122.325 168.259C122.141 166.422 122.154 164.604 122.372 162.801C122.586 160.998 123.023 159.241 123.681 157.531C124.34 155.821 125.261 154.236 126.448 152.769C127.633 151.302 129.095 149.985 130.831 148.821C132.561 147.657 134.605 146.718 136.954 146.009ZM137.44 149.349C135.689 149.879 134.289 150.79 133.247 152.083C132.204 153.377 131.485 154.937 131.092 156.763C130.699 158.587 130.608 160.625 130.82 162.876C131.032 165.126 131.508 167.478 132.248 169.928C133.102 172.755 134.108 175.277 135.267 177.492C136.424 179.706 137.727 181.519 139.173 182.929C140.622 184.339 142.2 185.304 143.91 185.819C145.62 186.334 147.459 186.295 149.433 185.7C151.306 185.133 152.755 184.176 153.779 182.821C154.806 181.468 155.494 179.864 155.846 178.006C156.2 176.149 156.249 174.123 155.998 171.93C155.75 169.734 155.284 167.511 154.604 165.261C153.769 162.493 152.775 159.994 151.624 157.767C150.473 155.539 149.179 153.703 147.744 152.254C146.308 150.808 144.725 149.815 142.997 149.271C141.264 148.728 139.414 148.754 137.44 149.349Z" fill="#F9FAFA"/>
<path d="M114.353 333.051C117.56 332.083 120.569 331.755 123.381 332.068C126.193 332.381 128.736 333.232 131.015 334.618C133.291 336.007 135.268 337.888 136.939 340.26C138.612 342.635 139.924 345.395 140.876 348.541C141.779 351.529 142.169 354.462 142.05 357.347C141.931 360.231 141.305 362.901 140.17 365.366C139.034 367.826 137.391 369.991 135.237 371.859C133.084 373.727 130.435 375.134 127.287 376.086C123.862 377.121 120.722 377.444 117.866 377.056C115.01 376.668 112.467 375.747 110.234 374.293C108.002 372.837 106.09 370.933 104.497 368.576C102.906 366.22 101.667 363.578 100.782 360.653C100.259 358.919 99.9049 357.137 99.7187 355.3C99.535 353.464 99.5479 351.645 99.7652 349.842C99.9825 348.039 100.417 346.282 101.074 344.573C101.734 342.863 102.655 341.277 103.842 339.81C105.03 338.343 106.489 337.027 108.224 335.862C109.96 334.698 112.004 333.762 114.353 333.051ZM114.839 336.393C113.088 336.923 111.688 337.834 110.646 339.127C109.603 340.421 108.881 341.98 108.488 343.804C108.095 345.628 108.004 347.666 108.217 349.917C108.429 352.168 108.905 354.519 109.645 356.969C110.498 359.796 111.505 362.319 112.663 364.533C113.82 366.747 115.124 368.561 116.57 369.971C118.018 371.38 119.596 372.345 121.306 372.86C123.016 373.375 124.855 373.336 126.829 372.741C128.702 372.175 130.151 371.217 131.175 369.862C132.202 368.509 132.89 366.905 133.242 365.048C133.594 363.19 133.646 361.165 133.395 358.971C133.146 356.775 132.681 354.553 132 352.302C131.165 349.534 130.169 347.035 129.02 344.808C127.869 342.581 126.576 340.744 125.14 339.295C123.704 337.849 122.121 336.856 120.393 336.313C118.662 335.769 116.813 335.795 114.839 336.393Z" fill="#F9FAFA"/>
<path d="M61.7791 584.632L57.7513 584.402C56.4889 584.348 55.4257 584.754 54.5566 585.626L22.7404 616.937L14.3667 623.523L9.83965 621.5L12.3024 566.746C12.3282 566.157 12.2196 565.572 11.9867 564.987C11.7539 564.405 11.4512 563.927 11.0787 563.549L8.22024 560.701L9.23943 558.419L31.7713 568.487L30.752 570.772L23.5217 569.47L22.7637 586.239L39.3431 593.647L51.0746 581.963L45.4973 577.36L46.5165 575.079L62.7983 582.353L61.7791 584.632ZM22.5335 591.071L21.8841 605.689L21.5376 611.595L35.8585 597.026L22.5335 591.071Z" fill="#F9FAFA"/>
<path d="M250.078 378.822C251.116 379.285 252.114 379.805 253.079 380.379C254.044 380.956 254.968 381.564 255.85 382.208C256.732 382.853 257.591 383.52 258.419 384.211C259.249 384.901 260.056 385.6 260.84 386.301L256.949 396.679L255.213 395.903L255.211 389.721C255.206 389.594 255.185 389.444 255.149 389.273C255.11 389.102 255.066 388.927 255.012 388.745C254.957 388.567 254.898 388.399 254.831 388.246C254.766 388.094 254.701 387.972 254.637 387.881C254.199 387.188 253.669 386.51 253.043 385.851C252.417 385.188 251.765 384.57 251.09 383.999C250.412 383.427 249.752 382.925 249.106 382.493C248.462 382.058 247.887 381.732 247.385 381.507C246.402 381.068 245.45 380.835 244.53 380.806C243.611 380.778 242.758 380.915 241.969 381.215C241.182 381.518 240.481 381.965 239.863 382.558C239.247 383.153 238.756 383.854 238.393 384.666C238.093 385.339 237.912 385.988 237.85 386.614C237.791 387.24 237.848 387.861 238.029 388.479C238.21 389.097 238.497 389.713 238.895 390.326C239.294 390.939 239.814 391.573 240.45 392.233C240.991 392.784 241.542 393.298 242.106 393.78C242.67 394.258 243.234 394.734 243.8 395.205C244.367 395.676 244.925 396.154 245.476 396.635C246.027 397.119 246.563 397.634 247.085 398.177C247.947 399.08 248.635 400.04 249.152 401.059C249.672 402.078 250.019 403.118 250.197 404.181C250.373 405.245 250.394 406.316 250.254 407.392C250.115 408.468 249.815 409.526 249.351 410.561C248.912 411.544 248.337 412.423 247.631 413.194C246.925 413.968 246.12 414.617 245.22 415.147C244.32 415.678 243.342 416.094 242.284 416.399C241.226 416.705 240.124 416.868 238.973 416.891C237.822 416.917 236.645 416.808 235.437 416.57C234.229 416.332 233.028 415.947 231.838 415.414C230.785 414.943 229.764 414.436 228.775 413.89C227.787 413.347 226.853 412.783 225.971 412.203C225.092 411.624 224.269 411.039 223.508 410.452C222.745 409.862 222.057 409.285 221.439 408.719L225.604 399.396L227.34 400.172L227.244 405.876C227.241 406.166 227.301 406.466 227.43 406.781C227.557 407.097 227.686 407.368 227.816 407.591C228.09 408.088 228.478 408.579 228.972 409.071C229.466 409.562 229.999 410.02 230.56 410.449C231.124 410.876 231.691 411.259 232.255 411.595C232.819 411.929 233.3 412.185 233.698 412.364C234.562 412.749 235.403 412.961 236.228 412.995C237.051 413.031 237.809 412.925 238.499 412.674C239.193 412.423 239.801 412.058 240.326 411.58C240.851 411.099 241.252 410.55 241.529 409.927C241.829 409.254 242.033 408.589 242.139 407.932C242.245 407.275 242.227 406.621 242.085 405.966C241.943 405.312 241.668 404.663 241.262 404.016C240.856 403.369 240.295 402.697 239.568 402.001C239.045 401.499 238.52 401.02 237.987 400.565C237.454 400.11 236.919 399.652 236.378 399.194C235.838 398.736 235.292 398.252 234.741 397.748C234.19 397.243 233.626 396.685 233.049 396.074C232.358 395.352 231.727 394.527 231.158 393.598C230.589 392.67 230.159 391.671 229.872 390.6C229.585 389.529 229.471 388.391 229.533 387.188C229.595 385.983 229.908 384.751 230.47 383.491C231.08 382.126 231.96 380.899 233.108 379.808C234.26 378.716 235.659 377.909 237.312 377.381C238.965 376.856 240.861 376.68 243.003 376.848C245.15 377.014 247.507 377.671 250.078 378.822Z" fill="#F9FAFA"/>
<path d="M53.3619 207.552L48.0019 206.73C47.3888 206.626 46.8378 206.693 46.3463 206.931C45.86 207.172 45.4874 207.563 45.2339 208.108L26.8231 247.649C26.5567 248.218 26.4894 248.769 26.6187 249.297C26.7532 249.825 27.0559 250.29 27.5293 250.694L31.6269 254.23L30.5714 256.496L6.67637 245.37C4.96644 244.573 3.20221 243.557 1.38363 242.317C-0.434951 241.078 -2.13708 239.63 -3.71767 237.974C-5.29826 236.318 -6.68746 234.443 -7.8826 232.35C-9.07774 230.255 -9.90554 227.942 -10.3686 225.407C-10.8316 222.869 -10.8653 220.109 -10.4721 217.126C-10.0789 214.146 -9.0855 210.944 -7.49197 207.526C-5.46127 203.165 -3.0115 199.701 -0.145225 197.135C2.72363 194.566 5.83566 192.789 9.18827 191.803C12.5409 190.815 16.0565 190.554 19.7299 191.012C23.4058 191.472 27.0507 192.543 30.6672 194.227L54.4148 205.284L53.3619 207.552ZM28.5226 198.157C26.047 197.003 23.6878 196.454 21.4423 196.509C19.2021 196.566 17.0705 197.179 15.0476 198.348C13.0247 199.517 11.131 201.22 9.36676 203.457C7.6025 205.695 5.96758 208.424 4.46977 211.645C2.83227 215.163 1.75098 218.518 1.22842 221.713C0.70846 224.908 0.705855 227.823 1.22582 230.462C1.74578 233.1 2.7728 235.426 4.30682 237.436C5.84343 239.446 7.83789 241.024 10.2903 242.165L15.4175 244.552L35.5073 201.408L28.5226 198.157Z" fill="#F9FAFA"/>
<path d="M79.4555 133.743L78.1491 138.18C78.0094 138.614 78.0094 139.07 78.144 139.546C78.2811 140.022 78.5682 140.397 79.0002 140.674L110.327 160.74C110.778 161.03 111.246 161.144 111.73 161.079C112.213 161.014 112.63 160.818 112.982 160.489L116.438 157.429L118.233 158.58L97.3386 191.203L86.8566 184.49L88.1397 182.488L95.8797 184.084C96.2185 184.162 96.5445 184.177 96.8652 184.133C97.186 184.087 97.4576 183.89 97.6827 183.536L106.357 169.991L91.3422 160.373L85.6847 169.204C85.4338 169.597 85.3433 169.942 85.4183 170.236C85.4907 170.534 85.6356 170.818 85.8477 171.093L89.5883 176.272L88.4372 178.067L73.2754 168.356L74.4266 166.56L80.6377 167.756C81.0257 167.838 81.3672 167.856 81.6621 167.81C81.9544 167.761 82.2286 167.541 82.4796 167.15L88.1371 158.316L73.6505 149.037C73.2004 148.747 72.7373 148.638 72.2639 148.708C71.7905 148.778 71.3715 148.988 71.0093 149.337L67.2247 152.85L65.4294 151.699L77.668 132.592L79.4555 133.743Z" fill="#F9FAFA"/>
<path d="M112.728 110.976C113.915 108.72 115.439 106.798 117.294 105.207C119.151 103.616 121.236 102.47 123.554 101.764C125.872 101.058 128.353 100.846 131.004 101.125C133.653 101.405 136.37 102.276 139.153 103.743C141.789 105.13 143.972 106.837 145.703 108.863C147.434 110.888 148.678 113.079 149.438 115.433C150.196 117.79 150.455 120.245 150.215 122.798C149.974 125.354 149.203 127.866 147.904 130.336C147.141 131.785 146.389 133.089 145.644 134.243C144.901 135.396 144.174 136.428 143.463 137.339C142.754 138.247 142.068 139.059 141.409 139.776C140.749 140.49 140.123 141.134 139.528 141.703L131.152 137.295L132.049 135.59L137.397 136.162C137.697 136.193 137.968 136.154 138.217 136.043C138.465 135.932 138.713 135.795 138.969 135.634C139.544 135.262 140.121 134.794 140.703 134.227C141.285 133.66 141.843 133.05 142.376 132.395C142.909 131.741 143.411 131.058 143.879 130.347C144.347 129.635 144.756 128.952 145.103 128.293C145.719 127.123 146.021 125.835 146.013 124.433C146.006 123.031 145.641 121.587 144.917 120.103C144.195 118.618 143.093 117.156 141.611 115.713C140.131 114.269 138.219 112.934 135.881 111.703C133.656 110.531 131.491 109.649 129.385 109.059C127.279 108.464 125.336 108.2 123.557 108.262C121.777 108.325 120.196 108.733 118.81 109.489C117.426 110.241 116.334 111.377 115.537 112.893C115.191 113.55 114.916 114.223 114.715 114.906C114.513 115.588 114.363 116.235 114.262 116.843C114.161 117.454 114.104 118.012 114.091 118.519C114.076 119.026 114.084 119.435 114.109 119.743L121.57 123.67C121.948 123.869 122.31 123.934 122.651 123.861C122.995 123.789 123.324 123.595 123.637 123.277L126.358 120.322L127.866 121.117L119.519 136.977L118.01 136.183L118.748 132.564C118.841 132.15 118.812 131.772 118.665 131.431C118.517 131.089 118.264 130.825 117.902 130.636L114.096 128.634C112.762 127.933 111.618 127.33 110.664 126.826C109.709 126.324 108.91 125.923 108.266 125.626C108.361 124.604 108.532 123.489 108.778 122.283C109.024 121.078 109.331 119.831 109.706 118.543C110.079 117.254 110.519 115.969 111.028 114.68C111.538 113.397 112.105 112.161 112.728 110.976Z" fill="#F9FAFA"/>
<path d="M-9.51314 252.15C-8.11622 250.994 -6.58994 250.145 -4.93951 249.61C-3.28649 249.072 -1.60242 248.89 0.11269 249.059C1.8278 249.229 3.51699 249.767 5.18036 250.675C6.84373 251.583 8.39068 252.897 9.81864 254.62C11.1716 256.25 12.1391 257.968 12.7212 259.771C13.3032 261.574 13.5231 263.354 13.3782 265.108C13.2333 266.862 12.7315 268.546 11.8753 270.157C11.019 271.771 9.82645 273.21 8.2976 274.477C7.39995 275.22 6.54887 275.872 5.74434 276.425C4.94241 276.979 4.18183 277.46 3.46527 277.864C2.75129 278.267 2.07872 278.614 1.4501 278.903C0.82149 279.193 0.234267 279.444 -0.311565 279.656L-4.60841 274.472L-3.55291 273.598L-0.197726 275.434C-0.00888306 275.538 0.179902 275.584 0.373919 275.579C0.567935 275.574 0.767148 275.553 0.979273 275.517C1.45785 275.429 1.96493 275.279 2.503 275.067C3.04107 274.855 3.57394 274.604 4.10425 274.322C4.63456 274.038 5.14933 273.727 5.65119 273.388C6.15304 273.049 6.60836 272.71 7.0145 272.374C7.73883 271.774 8.28985 271.011 8.66754 270.087C9.04522 269.164 9.2004 268.116 9.13055 266.944C9.06071 265.772 8.73733 264.51 8.15787 263.16C7.5784 261.807 6.68858 260.407 5.49085 258.961C4.35003 257.585 3.16776 256.413 1.94675 255.448C0.725741 254.483 -0.47715 253.777 -1.66453 253.332C-2.84932 252.887 -4.00047 252.724 -5.118 252.841C-6.23554 252.957 -7.25997 253.405 -8.19901 254.181C-8.60774 254.517 -8.96987 254.884 -9.28806 255.277C-9.60625 255.671 -9.88306 256.053 -10.1159 256.426C-10.3487 256.801 -10.5375 257.15 -10.6875 257.481C-10.835 257.81 -10.9436 258.079 -11.0109 258.291L-7.18235 262.909C-6.98833 263.144 -6.76845 263.284 -6.52528 263.33C-6.27953 263.377 -6.01046 263.338 -5.71815 263.217L-3.12352 262.021L-2.35002 262.955L-12.1647 271.094L-12.9382 270.16L-11.4662 267.984C-11.2929 267.738 -11.2076 267.482 -11.2101 267.218C-11.2127 266.955 -11.3084 266.711 -11.4947 266.486L-13.4478 264.132C-14.1333 263.307 -14.7205 262.598 -15.2094 262.006C-15.6984 261.414 -16.1148 260.932 -16.4563 260.562C-16.1148 259.918 -15.6984 259.233 -15.2068 258.506C-14.7153 257.782 -14.1721 257.047 -13.5746 256.302C-12.9796 255.557 -12.338 254.832 -11.6499 254.126C-10.9566 253.417 -10.2478 252.76 -9.51314 252.15Z" fill="#F9FAFA"/>
<path d="M223.589 481.294L216.876 480.037C216.17 479.913 215.49 479.98 214.832 480.247C214.178 480.511 213.681 480.984 213.34 481.659L188.534 530.655C188.177 531.361 188.082 532.057 188.257 532.742C188.433 533.428 188.777 534.018 189.297 534.514L194.308 539.132L192.885 541.941L163.78 527.206L165.203 524.397L171.846 525.678C172.552 525.802 173.248 525.729 173.926 525.455C174.604 525.184 175.113 524.708 175.458 524.032L185.901 503.405L159.838 490.209L149.395 510.837C149.038 511.543 148.945 512.239 149.118 512.924C149.291 513.607 149.638 514.2 150.16 514.696L155.169 519.314L153.746 522.123L124.643 507.388L126.066 504.579L132.753 505.883C133.444 506.038 134.127 505.968 134.797 505.673C135.469 505.376 135.976 504.889 136.318 504.214L161.124 455.219C161.481 454.512 161.569 453.824 161.387 453.154C161.206 452.484 160.855 451.902 160.335 451.408L155.35 446.744L156.772 443.935L185.875 458.67L184.452 461.479L177.742 460.222C177.033 460.095 176.353 460.165 175.696 460.431C175.044 460.698 174.544 461.168 174.203 461.844L162.451 485.053L188.514 498.249L200.266 475.039C200.623 474.333 200.703 473.642 200.506 472.965C200.31 472.287 199.948 471.7 199.43 471.206L194.489 466.565L195.912 463.755L225.017 478.49L223.589 481.294Z" fill="#F9FAFA"/>
<path d="M266.539 683.67C266.632 683.411 266.769 683.096 266.948 682.726C267.126 682.358 267.33 681.978 267.561 681.587C267.791 681.197 268.034 680.822 268.29 680.465C268.546 680.108 268.81 679.805 269.077 679.559L273.554 682.304L273.283 683.065C272.897 683.367 272.486 683.711 272.049 684.092C271.612 684.474 271.195 684.878 270.799 685.3C270.406 685.721 270.049 686.153 269.728 686.596C269.41 687.035 269.175 687.467 269.025 687.886C268.906 688.22 268.888 688.523 268.97 688.797C269.053 689.071 269.265 689.32 269.612 689.539C269.943 689.754 270.357 689.979 270.851 690.212C271.348 690.445 271.922 690.698 272.574 690.973C273.226 691.247 273.958 691.531 274.765 691.826C275.572 692.121 276.454 692.439 277.412 692.778L300.054 700.839C300.388 700.958 300.706 700.961 301.007 700.847C301.309 700.736 301.547 700.547 301.723 700.283L303.578 697.543L304.902 698.014L299.917 712.02L298.593 711.549L298.792 708.514C298.808 708.194 298.735 707.893 298.572 707.617C298.412 707.34 298.169 707.143 297.85 707.029L275.076 698.922C273.12 698.226 271.48 697.316 270.153 696.19C268.823 695.065 267.804 693.818 267.095 692.447C266.384 691.076 265.983 689.638 265.892 688.13C265.804 686.619 266.019 685.134 266.539 683.67Z" fill="#F9FAFA"/>
<path d="M46.4935 158.875L45.883 161.624C45.8158 161.927 45.8313 162.212 45.9373 162.478C46.0408 162.745 46.2296 162.954 46.5039 163.104L66.3608 173.995C66.648 174.153 66.9325 174.199 67.2171 174.137C67.5017 174.075 67.75 173.941 67.9621 173.734L69.9333 171.731L71.0715 172.355L64.6018 184.151L63.4635 183.528L64.0818 180.806C64.149 180.537 64.1284 180.253 64.0223 179.96C63.9162 179.668 63.7248 179.446 63.4532 179.295L53.3022 173.728L58.7243 189.69L61.0991 187.837L62.2373 188.461L57.4361 197.215L56.2978 196.591L56.6548 193.461C56.6962 193.063 56.691 192.665 56.6445 192.266C56.5979 191.868 56.497 191.423 56.3418 190.936L53.1108 180.229L36.3064 182.542C36.0632 182.57 35.8201 182.609 35.5743 182.661C35.3286 182.713 35.0957 182.775 34.8758 182.85C34.6559 182.925 34.449 183.013 34.255 183.116C34.061 183.22 33.8903 183.344 33.7454 183.491L32.1027 185.113L30.9645 184.49L37.3721 172.808L38.5104 173.431L37.7137 176.61L51.6337 174.779L50.8395 172.376L43.5988 168.405C43.3117 168.247 43.0246 168.208 42.7322 168.283C42.4399 168.358 42.1993 168.495 42.0053 168.697L40.0445 170.632L38.9062 170.009L45.3553 158.251L46.4935 158.875Z" fill="#F9FAFA"/>
<path d="M187.866 166.388L187.457 168.54C187.406 168.786 187.426 169.009 187.517 169.21C187.607 169.41 187.76 169.565 187.975 169.676L203.672 177.672C203.897 177.788 204.125 177.819 204.35 177.765C204.575 177.713 204.761 177.6 204.911 177.429L206.396 175.825L207.296 176.283L202.495 185.709L201.595 185.252L202.063 183.019C202.109 182.784 202.086 182.559 201.998 182.344C201.91 182.132 201.755 181.969 201.54 181.86L185.165 173.517L181.557 180.6C181.507 180.699 181.492 180.797 181.51 180.893C181.528 180.988 181.564 181.084 181.616 181.18C181.668 181.273 181.73 181.358 181.802 181.433C181.875 181.508 181.947 181.576 182.015 181.635L185.264 184.887L184.759 185.875L178.445 182.659L186.966 165.93L187.866 166.388Z" fill="#F9FAFA"/>
<path d="M-13.9233 114.819C-10.0766 112.488 -6.21954 111.013 -2.34955 110.392C1.52302 109.772 5.26619 109.973 8.88265 111.003C12.5017 112.03 15.9216 113.874 19.1501 116.534C22.3785 119.19 25.2732 122.631 27.8342 126.858C29.4847 129.584 30.7496 132.332 31.6317 135.107C32.5139 137.883 33.0312 140.62 33.1916 143.326C33.3494 146.032 33.1632 148.652 32.6277 151.19C32.0922 153.725 31.2308 156.126 30.046 158.395C28.8612 160.658 27.3608 162.754 25.5474 164.67C23.7314 166.585 21.6283 168.271 19.2328 169.72C17.9859 170.475 16.5166 171.244 14.8325 172.02C13.1459 172.798 11.4204 173.528 9.65876 174.213C7.89968 174.896 6.18972 175.497 4.5367 176.014C2.88109 176.529 1.46349 176.901 0.278695 177.129L-7.52073 164.257L-4.96234 162.707L1.91358 167.679C2.3818 167.989 2.81129 168.181 3.20449 168.256C3.5977 168.331 4.02196 168.37 4.47725 168.375C6.59591 168.31 8.64727 168.015 10.6262 167.493C12.6104 166.973 14.5298 166.148 16.3872 165.022C18.4257 163.788 19.9934 162.195 21.0902 160.242C22.1871 158.289 22.7717 156.038 22.8441 153.485C22.9191 150.934 22.4664 148.12 21.4886 145.039C20.5082 141.96 18.9638 138.675 16.8503 135.185C14.6592 131.569 12.3517 128.581 9.93034 126.219C7.50643 123.857 4.98939 122.155 2.37147 121.112C-0.246463 120.067 -2.93161 119.703 -5.68405 120.013C-8.4365 120.326 -11.2277 121.335 -14.0552 123.047C-15.9152 124.173 -17.4233 125.376 -18.5822 126.654C-19.7412 127.929 -20.6854 129.215 -21.4149 130.508C-22.1444 131.804 -22.7084 133.087 -23.1068 134.352C-23.5052 135.622 -23.8725 136.81 -24.2088 137.919L-25.8514 138.915L-28.3736 134.75C-27.895 133.242 -27.2303 131.579 -26.3844 129.758C-25.5384 127.939 -24.5037 126.11 -23.2827 124.276C-22.0617 122.442 -20.6751 120.696 -19.1203 119.038C-17.5656 117.385 -15.8324 115.977 -13.9233 114.819Z" fill="#F9FAFA"/>
<path d="M109.725 471.981L104.303 472.141C103.682 472.151 103.152 472.314 102.712 472.64C102.278 472.964 101.983 473.416 101.833 473.998L90.8771 516.216C90.7193 516.824 90.7529 517.378 90.9754 517.872C91.203 518.366 91.5833 518.77 92.124 519.08L96.7933 521.817L96.1647 524.238L72.8724 518.193C68.6661 517.101 65.3135 515.872 62.8197 514.504C60.3208 513.135 58.4453 511.689 57.1907 510.163C55.936 508.637 55.2039 507.069 54.9996 505.465C54.7952 503.859 54.8961 502.276 55.2997 500.716C55.7472 498.995 56.4534 497.485 57.4261 496.183C58.3988 494.882 59.5758 493.798 60.9624 492.932C62.3438 492.063 63.9244 491.413 65.7016 490.986C67.4813 490.557 69.4008 490.342 71.46 490.342C69.0671 489.551 66.9665 488.568 65.1531 487.393C63.3423 486.216 61.873 484.881 60.7503 483.391C59.6275 481.901 58.8773 480.274 58.5022 478.51C58.1271 476.746 58.1918 474.901 58.6911 472.969C59.2343 470.879 60.0285 469.122 61.0736 467.699C62.1187 466.279 63.3449 465.128 64.7444 464.248C66.1465 463.369 67.696 462.732 69.3904 462.342C71.0874 461.949 72.8569 461.739 74.6987 461.708C76.5432 461.677 78.429 461.806 80.3563 462.096C82.2861 462.383 84.1771 462.769 86.0293 463.25L110.354 469.562L109.725 471.981ZM81.5359 494.269C79.4741 493.734 77.6866 493.496 76.1732 493.555C74.6625 493.615 73.3716 493.936 72.3033 494.52C71.2349 495.102 70.3579 495.92 69.675 496.973C68.9921 498.025 68.4592 499.29 68.0737 500.773C67.0778 504.606 67.1994 507.597 68.4385 509.739C69.675 511.881 71.9851 513.391 75.3713 514.271L79.1016 515.239L84.353 495.004L81.5359 494.269ZM84.2702 467.41C80.8322 466.517 78.0462 466.641 75.9171 467.782C73.783 468.923 72.2489 471.305 71.3073 474.93C70.7589 477.046 70.5313 478.901 70.627 480.491C70.7201 482.082 71.1469 483.464 71.9023 484.633C72.6577 485.802 73.7493 486.793 75.1773 487.603C76.6053 488.41 78.3643 489.085 80.4545 489.628L85.4162 490.917L91.0582 469.174L84.2702 467.41Z" fill="#F9FAFA"/>
</svg>
